<svg width="24" height="24" viewBox="0 0 24 24" fill="none" xmlns="http://www.w3.org/2000/svg">
<g id="moon">
<path id="Vector" d="M11.9794 22.241L11.9794 22.2409L11.9723 22.2406C6.62041 22.0017 2.15041 17.686 1.77876 12.4447L1.77872 12.4442C1.45435 7.94125 4.05841 3.72964 8.26292 1.9614C8.81553 1.73167 9.19107 1.72373 9.4307 1.77165C9.67013 1.81954 9.81779 1.93194 9.90031 2.01741L9.90025 2.01746L9.90646 2.02367C9.99122 2.10843 10.0995 2.25509 10.1442 2.48454C10.1888 2.71296 10.1793 3.06939 9.95184 3.58991L9.95134 3.59107C9.46363 4.71491 9.21956 5.91384 9.23002 7.1434C9.25182 11.8463 13.1487 15.8185 17.8985 16.0097C18.5887 16.0414 19.2653 15.9881 19.9174 15.8724L19.9195 15.872C20.5024 15.7661 20.8652 15.8384 21.0845 15.9351C21.3035 16.0317 21.4219 16.1714 21.4846 16.2729C21.5494 16.3777 21.6233 16.5483 21.6141 16.7885C21.605 17.0286 21.511 17.3863 21.1582 17.8625L21.1564 17.865C19.1319 20.6343 15.9129 22.2501 12.46 22.2501C12.2876 22.2501 12.1323 22.25 11.9794 22.241ZM2.27119 12.4044L2.27128 12.4057C2.62975 17.4243 6.89952 21.5182 11.987 21.7396C15.4443 21.9073 18.7243 20.3307 20.7433 17.5757L20.7433 17.5757L20.7469 17.5707C20.9192 17.3294 21.0111 17.1411 21.0582 17.0157L21.2838 16.4141L20.6452 16.3432C20.514 16.3286 20.3032 16.3182 19.9974 16.3787C19.3055 16.5016 18.5833 16.549 17.87 16.5205L17.8699 16.5205C12.8529 16.321 8.74922 12.1062 8.72001 7.15865C8.7202 5.84669 8.97651 4.58694 9.49652 3.40409C9.62394 3.1228 9.65274 2.91939 9.66615 2.81213L9.7364 2.25011H9.17001C9.00018 2.25011 8.77391 2.2891 8.46583 2.41936C4.46093 4.1015 1.97638 8.11911 2.27119 12.4044Z" stroke="#090D1F"/>
</g>
</svg>
